<svg width="159" height="41" viewBox="0 0 159 41" fill="none" xmlns="http://www.w3.org/2000/svg">
<path d="M0.71875 28.7656C1.16667 28.7656 1.59896 28.7552 2.01562 28.7344C2.44271 28.7031 2.81771 28.6562 3.14062 28.5938C3.46354 28.5312 3.71875 28.4427 3.90625 28.3281C4.10417 28.2135 4.20312 28.0625 4.20312 27.875V11.5781L2.29688 9.07812H0.4375V7.85938H14.0938L24.1406 21.0938V10C24.1406 9.8125 24.0729 9.66146 23.9375 9.54688C23.8125 9.42188 23.625 9.32812 23.375 9.26562C23.125 9.19271 22.8229 9.14583 22.4688 9.125C22.1146 9.09375 21.7135 9.07812 21.2656 9.07812V7.85938H28.3438V9.07812C27.4479 9.07812 26.7448 9.13542 26.2344 9.25C25.724 9.36458 25.4688 9.61458 25.4688 10V30H17.5469L5.53125 13.3281V27.7969C5.53125 28.0052 5.61458 28.1719 5.78125 28.2969C5.95833 28.4219 6.19271 28.5208 6.48438 28.5938C6.78646 28.6562 7.14062 28.7031 7.54688 28.7344C7.95312 28.7552 8.38542 28.7656 8.84375 28.7656V30H0.71875V28.7656ZM29.08 18.9219C29.08 17.8906 29.1842 16.8854 29.3925 15.9062C29.6112 14.9271 29.9446 14.0052 30.3925 13.1406C30.8508 12.276 31.4342 11.4844 32.1425 10.7656C32.8508 10.0469 33.6998 9.42708 34.6894 8.90625C35.679 8.38542 36.8196 7.98438 38.1112 7.70312C39.4029 7.41146 40.856 7.26562 42.4706 7.26562C44.0852 7.26562 45.5383 7.41146 46.83 7.70312C48.1217 7.98438 49.2623 8.38542 50.2519 8.90625C51.2519 9.42708 52.106 10.0469 52.8144 10.7656C53.5227 11.4844 54.1008 12.276 54.5487 13.1406C54.9967 14.0052 55.3248 14.9271 55.5331 15.9062C55.7519 16.8854 55.8612 17.8906 55.8612 18.9219C55.8612 19.9531 55.7519 20.9635 55.5331 21.9531C55.3248 22.9323 54.9967 23.8542 54.5487 24.7188C54.1008 25.5833 53.5227 26.375 52.8144 27.0938C52.106 27.8125 51.2519 28.4323 50.2519 28.9531C49.2623 29.474 48.1217 29.875 46.83 30.1562C45.5383 30.4479 44.0852 30.5938 42.4706 30.5938C40.856 30.5938 39.4029 30.4479 38.1112 30.1562C36.8196 29.875 35.679 29.474 34.6894 28.9531C33.6998 28.4323 32.8508 27.8125 32.1425 27.0938C31.4342 26.375 30.8508 25.5833 30.3925 24.7188C29.9446 23.8542 29.6112 22.9323 29.3925 21.9531C29.1842 20.974 29.08 19.9635 29.08 18.9219ZM42.4706 29.5156C43.0123 29.5156 43.4602 29.3542 43.8144 29.0312C44.179 28.7083 44.4706 28.1458 44.6894 27.3438C44.9081 26.5312 45.0592 25.4479 45.1425 24.0938C45.2362 22.7292 45.2831 21.0052 45.2831 18.9219C45.2831 16.849 45.2362 15.1354 45.1425 13.7812C45.0592 12.4167 44.9081 11.3333 44.6894 10.5312C44.4706 9.71875 44.179 9.15104 43.8144 8.82812C43.4602 8.50521 43.0123 8.34375 42.4706 8.34375C41.929 8.34375 41.4758 8.50521 41.1112 8.82812C40.7571 9.15104 40.4706 9.71875 40.2519 10.5312C40.0435 11.3333 39.8925 12.4167 39.7987 13.7812C39.7154 15.1354 39.6737 16.849 39.6737 18.9219C39.6737 21.0052 39.7154 22.7292 39.7987 24.0938C39.8925 25.4479 40.0435 26.5312 40.2519 27.3438C40.4706 28.1458 40.7571 28.7083 41.1112 29.0312C41.4758 29.3542 41.929 29.5156 42.4706 29.5156ZM57.2537 28.7656C58.16 28.7656 58.8423 28.7188 59.3006 28.625C59.759 28.5208 59.9881 28.2708 59.9881 27.875V9.07812H57.2537V7.85938H69.785L72.66 17.1094L75.6912 7.85938H88.7537V9.07812H86.0194V28.7656H88.7537V30H72.9569V28.7656H75.6912V12.3594L69.9256 30H67.0506L61.3162 12.5625V27.7969C61.3162 28.2344 61.5402 28.5052 61.9881 28.6094C62.4465 28.7135 63.134 28.7656 64.0506 28.7656V30H57.2537V28.7656ZM88.1619 28.7656C89.0056 28.7656 89.6515 28.7083 90.0994 28.5938C90.5577 28.4792 90.8494 28.2708 90.9744 27.9688L99.0212 7.85938H105.881L115.302 28.7656H118.021V30H100.302V28.7656H103.318L101.162 23.375H94.2869L92.4587 27.9219C92.4483 27.9531 92.4431 27.9948 92.4431 28.0469C92.4431 28.1927 92.5108 28.3125 92.6462 28.4062C92.7921 28.4896 92.99 28.5625 93.24 28.625C93.5004 28.6771 93.8025 28.7135 94.1462 28.7344C94.5004 28.7552 94.8858 28.7656 95.3025 28.7656V30H88.1619V28.7656ZM100.677 22.1406L97.6619 14.7656L94.7712 22.1406H100.677ZM117.586 28.7656H120.32V9.07812H117.586V7.85938H135.007C136.664 7.85938 138.159 8.10938 139.492 8.60938C140.825 9.09896 141.961 9.81771 142.898 10.7656C143.836 11.7135 144.554 12.875 145.054 14.25C145.565 15.6146 145.82 17.1719 145.82 18.9219C145.82 20.6823 145.565 22.25 145.054 23.625C144.554 25 143.836 26.1615 142.898 27.1094C141.961 28.0469 140.825 28.7656 139.492 29.2656C138.159 29.7552 136.664 30 135.007 30H117.586V28.7656ZM131.101 28.7656C131.591 28.7656 132.034 28.7188 132.429 28.625C132.836 28.5208 133.19 28.3333 133.492 28.0625C133.794 27.7917 134.054 27.4271 134.273 26.9688C134.492 26.5 134.669 25.901 134.804 25.1719C134.95 24.4427 135.054 23.5677 135.117 22.5469C135.19 21.5156 135.226 20.3073 135.226 18.9219C135.226 17.5365 135.19 16.3333 135.117 15.3125C135.054 14.2917 134.95 13.4167 134.804 12.6875C134.669 11.9583 134.492 11.3594 134.273 10.8906C134.054 10.4219 133.794 10.0573 133.492 9.79688C133.19 9.52604 132.836 9.33854 132.429 9.23438C132.034 9.13021 131.591 9.07812 131.101 9.07812V28.7656ZM147.884 26.3906C147.884 25.8073 147.994 25.2604 148.212 24.75C148.431 24.2292 148.733 23.7812 149.119 23.4062C149.504 23.0208 149.952 22.7188 150.462 22.5C150.973 22.2812 151.52 22.1719 152.103 22.1719C152.676 22.1719 153.218 22.2812 153.728 22.5C154.239 22.7188 154.686 23.0208 155.072 23.4062C155.457 23.7812 155.759 24.2292 155.978 24.75C156.197 25.2604 156.306 25.8073 156.306 26.3906C156.306 26.974 156.197 27.5208 155.978 28.0312C155.759 28.5312 155.457 28.974 155.072 29.3594C154.686 29.7448 154.239 30.0469 153.728 30.2656C153.218 30.4844 152.676 30.5938 152.103 30.5938C151.52 30.5938 150.973 30.4844 150.462 30.2656C149.952 30.0469 149.504 29.7448 149.119 29.3594C148.733 28.974 148.431 28.5312 148.212 28.0312C147.994 27.5208 147.884 26.974 147.884 26.3906Z" fill="black"/>
</svg>
